# xmcd
#
# Track frame offsets:
#	150
#	14807
#	34979
#	50598
#	72706
#	88741
#	110605
#	131824
#	147709
#	164137
#	180812
#	200999
#	220569
#	238809
#
# Disc length: 3522 seconds
#
# Revision: 1
# Processed by: cddbd v1.5.2PL0 Copyright (c) Steve Scherf et al.
# Submitted via: audiograbber 1.83.01
#
DISCID=e70dc00e
DTITLE=Barth - Roemer - Menschen leben
DYEAR=2015
DGENRE=Deutsch
TTITLE0=Nix zu verlieren
TTITLE1=Rattenfänger
TTITLE2=Menschen leben
TTITLE3=Kiste im Keller
TTITLE4=Neues Leben
TTITLE5=Das geht auch wieder weg
TTITLE6=Du könntest ganz anders
TTITLE7=Kein Blues
TTITLE8=Trautes Heim
TTITLE9=Was los
TTITLE10=Der Kopf ist rund
TTITLE11=Pippilotta Viktualia (Rollgardina Pfefferminz Ephraimstochter langstru
TTITLE11=mpf)
TTITLE12=Mit im Tritt
TTITLE13=Feuer brennt
EXTD=
EXTT0=
EXTT1=
EXTT2=
EXTT3=
EXTT4=
EXTT5=
EXTT6=
EXTT7=
EXTT8=
EXTT9=
EXTT10=
EXTT11=
EXTT12=
EXTT13=
PLAYORDER=
